<svg xmlns="http://www.w3.org/2000/svg" xmlns:xlink="http://www.w3.org/1999/xlink" width="800" zoomAndPan="magnify" viewBox="0 0 600 599.999999" height="800" preserveAspectRatio="xMidYMid meet" version="1.0"><defs><clipPath id="f0074f1549"><path d="M 19.277344 156 L 581 156 L 581 513.402344 L 19.277344 513.402344 Z M 19.277344 156 " clip-rule="nonzero"/></clipPath><clipPath id="4d994cd442"><path d="M 70 86.652344 L 495 86.652344 L 495 386 L 70 386 Z M 70 86.652344 " clip-rule="nonzero"/></clipPath><clipPath id="7ddcb362a7"><path d="M 19.277344 156 L 581 156 L 581 513.402344 L 19.277344 513.402344 Z M 19.277344 156 " clip-rule="nonzero"/></clipPath><clipPath id="41bb16e81c"><path d="M 70 86.652344 L 495 86.652344 L 495 386 L 70 386 Z M 70 86.652344 " clip-rule="nonzero"/></clipPath></defs><g clip-path="url(#f0074f1549)"><path fill="#004aad" d="M 466.074219 304.753906 L 522.289062 259.210938 C 526.386719 278.652344 529.136719 295.753906 529.136719 315.796875 C 529.136719 338.457031 525.824219 360.339844 519.710938 381.015625 L 382.039062 259.347656 L 385.988281 352.117188 L 348.414062 390.136719 L 347.246094 490.839844 L 197.390625 342.585938 L 223.773438 448.753906 L 183.890625 513.375 C 145.976562 491.042969 115.058594 458.125 95.207031 418.675781 L 19.429688 475.09375 L 196.425781 298.101562 L 248.09375 347.851562 L 381.085938 216.78125 L 438.488281 272.277344 L 536.082031 182.335938 L 499.722656 167.5 L 580.570312 156.5 L 571.007812 230.167969 L 555.9375 196.925781 Z M 466.074219 304.753906 " fill-opacity="1" fill-rule="evenodd"/></g><g clip-path="url(#4d994cd442)"><path fill="#70cbff" d="M 300 86.652344 C 381.882812 86.652344 453.71875 129.613281 494.246094 194.210938 L 438.816406 245.296875 L 380.949219 189.363281 L 247.9375 320.46875 L 196.179688 270.613281 L 81.570312 385.210938 C 74.613281 363.316406 70.851562 339.996094 70.851562 315.785156 C 70.851562 189.238281 173.453125 86.652344 300 86.652344 " fill-opacity="1" fill-rule="evenodd"/></g><g clip-path="url(#7ddcb362a7)"><path fill="#004aad" d="M 466.074219 304.753906 L 522.289062 259.210938 C 526.386719 278.652344 529.136719 295.753906 529.136719 315.796875 C 529.136719 338.457031 525.824219 360.339844 519.710938 381.015625 L 382.039062 259.347656 L 385.988281 352.117188 L 348.414062 390.136719 L 347.246094 490.839844 L 197.390625 342.585938 L 223.773438 448.753906 L 183.890625 513.375 C 145.976562 491.042969 115.058594 458.125 95.207031 418.675781 L 19.429688 475.09375 L 196.425781 298.101562 L 248.09375 347.851562 L 381.085938 216.78125 L 438.488281 272.277344 L 536.082031 182.335938 L 499.722656 167.5 L 580.570312 156.5 L 571.007812 230.167969 L 555.9375 196.925781 Z M 466.074219 304.753906 " fill-opacity="1" fill-rule="evenodd"/></g><g clip-path="url(#41bb16e81c)"><path fill="#70cbff" d="M 300 86.652344 C 381.882812 86.652344 453.71875 129.613281 494.246094 194.210938 L 438.816406 245.296875 L 380.949219 189.363281 L 247.9375 320.46875 L 196.179688 270.613281 L 81.570312 385.210938 C 74.613281 363.316406 70.851562 339.996094 70.851562 315.785156 C 70.851562 189.238281 173.453125 86.652344 300 86.652344 " fill-opacity="1" fill-rule="evenodd"/></g></svg>