<svg xmlns="http://www.w3.org/2000/svg" xmlns:xlink="http://www.w3.org/1999/xlink" width="800" zoomAndPan="magnify" viewBox="0 0 600 599.999999" height="800" preserveAspectRatio="xMidYMid meet" version="1.0"><defs><g/><clipPath id="ba0a5893e3"><path d="M 0 44 L 494 44 L 494 340 L 0 340 Z M 0 44 " clip-rule="nonzero"/></clipPath><clipPath id="ee728a389e"><rect x="0" width="506" y="0" height="417"/></clipPath><clipPath id="c48f7c7107"><rect x="0" width="513" y="0" height="200"/></clipPath></defs><g transform="matrix(1, 0, 0, 1, 48, 25)"><g clip-path="url(#ee728a389e)"><g fill="#9cdaff" fill-opacity="1"><g transform="translate(24.121809, 345.608477)"><g><path d="M 469.65625 0 L 350.78125 0 L 324.46875 -45.796875 L 148.109375 -45.796875 L 121.796875 0 L 2.921875 0 L 181.828125 -279.453125 L 290.75 -279.453125 Z M 284.90625 -114.984375 L 236.390625 -199.75 L 187.671875 -114.984375 Z M 284.90625 -114.984375 "/></g></g></g><g clip-path="url(#ba0a5893e3)"><g fill="#38b6ff" fill-opacity="1"><g transform="translate(10.010427, 331.497094)"><g><path d="M 469.664062 7.484375 L 346.453125 7.484375 L 317.988281 -42.070312 L 324.476562 -45.796875 L 324.476562 -38.3125 L 148.109375 -38.3125 L 148.109375 -45.796875 L 154.597656 -42.070312 L 126.132812 7.484375 L -10.753906 7.484375 L 177.730469 -286.941406 L 294.855469 -286.941406 L 483.339844 7.484375 Z M 469.664062 -7.484375 L 469.664062 0 L 463.359375 4.035156 L 284.460938 -275.425781 L 290.761719 -279.457031 L 290.761719 -271.976562 L 181.824219 -271.976562 L 181.824219 -279.457031 L 188.125 -275.425781 L 9.226562 4.035156 L 2.921875 0 L 2.921875 -7.484375 L 121.800781 -7.484375 L 121.800781 0 L 115.3125 -3.726562 L 143.777344 -53.28125 L 328.808594 -53.28125 L 357.273438 -3.726562 L 350.785156 0 L 350.785156 -7.484375 Z M 278.421875 -111.261719 L 229.894531 -196.035156 L 236.390625 -199.753906 L 242.878906 -196.023438 L 194.160156 -111.25 L 187.671875 -114.980469 L 187.671875 -122.464844 L 284.914062 -122.464844 L 284.914062 -114.980469 Z M 297.820312 -107.496094 L 174.738281 -107.496094 L 236.402344 -214.792969 L 291.410156 -118.699219 Z M 297.820312 -107.496094 "/></g></g></g></g></g></g><g transform="matrix(1, 0, 0, 1, 40, 363)"><g clip-path="url(#c48f7c7107)"><g fill="#9cdaff" fill-opacity="1"><g transform="translate(9.420128, 166.143356)"><g><path d="M 171.859375 0 L 14.984375 0 L 14.984375 -134.40625 L 71.375 -134.40625 L 71.375 -33.25 L 171.859375 -33.25 Z M 171.859375 0 "/></g></g></g><g fill="#9cdaff" fill-opacity="1"><g transform="translate(147.564869, 166.143356)"><g><path d="M 114.640625 0 L 58.25 0 L 58.25 -101.15625 L 5.625 -101.15625 L 5.625 -134.40625 L 167.28125 -134.40625 L 167.28125 -101.15625 L 114.640625 -101.15625 Z M 114.640625 0 "/></g></g></g><g fill="#9cdaff" fill-opacity="1"><g transform="translate(312.963927, 166.143356)"><g><path d="M 101.625 2.90625 C 68.40625 2.90625 43.957031 -3.929688 28.28125 -17.609375 C 14.425781 -29.722656 7.5 -46.238281 7.5 -67.15625 C 7.5 -88.007812 14.425781 -104.492188 28.28125 -116.609375 C 43.957031 -130.273438 68.40625 -137.109375 101.625 -137.109375 C 134.84375 -137.109375 159.285156 -130.273438 174.953125 -116.609375 C 188.816406 -104.492188 195.75 -88.007812 195.75 -67.15625 C 195.75 -46.238281 188.816406 -29.722656 174.953125 -17.609375 C 159.285156 -3.929688 134.84375 2.90625 101.625 2.90625 Z M 101.625 -33.15625 C 115.226562 -33.15625 125.21875 -37.054688 131.59375 -44.859375 C 136.707031 -51.171875 139.265625 -58.601562 139.265625 -67.15625 C 139.265625 -75.707031 136.707031 -83.101562 131.59375 -89.34375 C 125.21875 -97.21875 115.226562 -101.15625 101.625 -101.15625 C 88.007812 -101.15625 77.988281 -97.21875 71.5625 -89.34375 C 66.4375 -83.101562 63.875 -75.707031 63.875 -67.15625 C 63.875 -58.601562 66.4375 -51.171875 71.5625 -44.859375 C 77.988281 -37.054688 88.007812 -33.15625 101.625 -33.15625 Z M 101.625 -33.15625 "/></g></g></g><g fill="#38b6ff" fill-opacity="1"><g transform="translate(0.943224, 157.666452)"><g><path d="M 171.863281 3.597656 L 11.390625 3.597656 L 11.390625 -137.996094 L 74.964844 -137.996094 L 74.964844 -33.25 L 71.367188 -33.25 L 71.367188 -36.84375 L 175.457031 -36.84375 L 175.457031 3.597656 Z M 171.863281 -3.597656 L 171.863281 0 L 168.265625 0 L 168.265625 -33.25 L 171.863281 -33.25 L 171.863281 -29.652344 L 67.769531 -29.652344 L 67.769531 -134.398438 L 71.367188 -134.398438 L 71.367188 -130.800781 L 14.984375 -130.800781 L 14.984375 -134.398438 L 18.582031 -134.398438 L 18.582031 0 L 14.984375 0 L 14.984375 -3.597656 Z M 171.863281 -3.597656 "/></g></g></g><g fill="#38b6ff" fill-opacity="1"><g transform="translate(139.087965, 157.666452)"><g><path d="M 114.636719 3.597656 L 54.660156 3.597656 L 54.660156 -101.148438 L 58.253906 -101.148438 L 58.253906 -97.554688 L 2.023438 -97.554688 L 2.023438 -137.996094 L 170.867188 -137.996094 L 170.867188 -97.554688 L 114.636719 -97.554688 L 114.636719 -101.148438 L 118.234375 -101.148438 L 118.234375 3.597656 Z M 114.636719 -3.597656 L 114.636719 0 L 111.039062 0 L 111.039062 -104.746094 L 167.273438 -104.746094 L 167.273438 -101.148438 L 163.675781 -101.148438 L 163.675781 -134.398438 L 167.273438 -134.398438 L 167.273438 -130.800781 L 5.621094 -130.800781 L 5.621094 -134.398438 L 9.214844 -134.398438 L 9.214844 -101.148438 L 5.621094 -101.148438 L 5.621094 -104.746094 L 61.851562 -104.746094 L 61.851562 0 L 58.253906 0 L 58.253906 -3.597656 Z M 114.636719 -3.597656 "/></g></g></g><g fill="#38b6ff" fill-opacity="1"><g transform="translate(304.487023, 157.666452)"><g><path d="M 101.617188 6.5 C 67.503906 6.5 42.269531 -0.632812 25.921875 -14.898438 C 11.238281 -27.726562 3.894531 -45.148438 3.894531 -67.152344 C 3.894531 -89.09375 11.238281 -106.480469 25.917969 -119.3125 C 42.269531 -133.578125 67.503906 -140.710938 101.617188 -140.710938 C 135.734375 -140.710938 160.96875 -133.578125 177.316406 -119.3125 C 192 -106.484375 199.339844 -89.09375 199.339844 -67.152344 C 199.339844 -45.148438 192 -27.730469 177.320312 -14.898438 C 160.96875 -0.632812 135.734375 6.5 101.617188 6.5 Z M 101.617188 -0.691406 C 133.9375 -0.691406 157.59375 -7.234375 172.585938 -20.316406 C 185.625 -31.710938 192.148438 -47.324219 192.148438 -67.152344 C 192.148438 -86.917969 185.628906 -102.5 172.585938 -113.894531 C 157.59375 -126.976562 133.9375 -133.519531 101.617188 -133.519531 C 69.300781 -133.519531 45.644531 -126.976562 30.652344 -113.894531 C 17.609375 -102.5 11.089844 -86.917969 11.089844 -67.152344 C 11.089844 -47.324219 17.609375 -31.710938 30.648438 -20.316406 C 45.644531 -7.234375 69.300781 -0.691406 101.617188 -0.691406 Z M 101.617188 -36.75 C 114.089844 -36.75 123.152344 -40.210938 128.800781 -47.136719 C 133.382812 -52.777344 135.671875 -59.449219 135.671875 -67.152344 C 135.671875 -74.847656 133.382812 -81.488281 128.808594 -87.070312 C 123.148438 -94.058594 114.085938 -97.554688 101.617188 -97.554688 C 89.144531 -97.554688 80.050781 -94.058594 74.339844 -87.074219 C 69.761719 -81.488281 67.472656 -74.847656 67.472656 -67.152344 C 67.472656 -59.449219 69.761719 -52.773438 74.347656 -47.128906 C 80.046875 -40.210938 89.136719 -36.75 101.617188 -36.75 Z M 101.617188 -29.558594 C 86.875 -29.558594 75.921875 -33.902344 68.761719 -42.59375 C 63.105469 -49.5625 60.277344 -57.746094 60.277344 -67.152344 C 60.277344 -76.5625 63.109375 -84.722656 68.769531 -91.625 C 75.921875 -100.371094 86.871094 -104.746094 101.617188 -104.746094 C 116.375 -104.746094 127.289062 -100.375 134.371094 -91.628906 C 140.035156 -84.722656 142.863281 -76.5625 142.863281 -67.152344 C 142.863281 -57.746094 140.035156 -49.558594 134.375 -42.589844 C 127.285156 -33.902344 116.367188 -29.558594 101.617188 -29.558594 Z M 101.617188 -29.558594 "/></g></g></g></g></g></svg>